<svg width="52" height="35" fill="none" xmlns="http://www.w3.org/2000/svg"><path d="M27.182 4.375C27.182 1.947 29.286 0 31.909 0h8.273c2.6 0 4.727 1.969 4.727 4.375V9.1c-2.742.897-4.727 3.303-4.727 6.147v4.44h-13V4.376zm-15.364 10.85v4.463h13V4.374C24.818 1.947 22.714 0 20.091 0h-8.273c-2.6 0-4.727 1.969-4.727 4.375v4.703c2.742.897 4.727 3.325 4.727 6.147zm34.651-4.222c-2.316.35-3.924 2.384-3.924 4.572v6.3H9.455v-6.563c0-1.16-.499-2.273-1.385-3.093-.887-.82-2.089-1.281-3.343-1.281-1.253 0-2.456.46-3.342 1.28C.498 13.04 0 14.153 0 15.314V26.25c0 2.406 2.127 4.375 4.727 4.375V35h4.728v-4.375h33.09V35h4.728v-4.375c2.6 0 4.727-1.969 4.727-4.375V15.312c0-2.646-2.576-4.768-5.53-4.309z" fill="#fff"/></svg>