<svg width="56" height="56" fill="none" xmlns="http://www.w3.org/2000/svg"><path d="M44.312 4.667H21.023a4.687 4.687 0 00-4.69 4.69V22.51L5.362 33.34A2.333 2.333 0 007 37.333V49a2.333 2.333 0 002.333 2.333h37.334A2.333 2.333 0 0049 49V9.354a4.685 4.685 0 00-4.688-4.687zM25.485 35.259v11.408H11.667V33.675l6.97-6.881 6.848 7.007v1.458zM30.333 21h-4.666v-4.667h4.666V21zm9.334 18.667H35V35h4.667v4.667zm0-9.334H35v-4.666h4.667v4.666zm0-9.333H35v-4.667h4.667V21z" fill="#434343"/><path d="M16.333 35H21v4.667h-4.667V35z" fill="#434343"/></svg>